# AST/ASF file generated using VICON BodyLanguage
# -----------------------------------------------
:version 1.10
:name VICON
:units
  mass 1.0
  length 0.45
  angle deg
:documentation
   .ast/.asf automatically generated from VICON data using
   VICON BodyBuilder and BodyLanguage model FoxedUp or BRILLIANT.MOD
:root
   order TX TY TZ RX RY RZ
   axis XYZ
   position 0 0 0  
   orientation 0 0 0 
:bonedata
  begin
     id 1 
     name lhipjoint
     direction 0.561001 -0.76473 0.316963 
     length 2.4722 
     axis 0 0 0  XYZ
  end
  begin
     id 2 
     name lfemur
     direction 0.34202 -0.939693 0  
     length 7.59403  
     axis 0 0 20  XYZ
    dof rx ry rz
    limits (-160.0 20.0)
           (-70.0 70.0)
           (-60.0 70.0)
  end
  begin
     id 3 
     name ltibia
     direction 0.34202 -0.939693 0   
     length 7.89655   
     axis 0 0 20   XYZ
    dof rx
    limits (-10.0 170.0)
  end
  begin
     id 4 
     name lfoot
     direction 0.061296 -0.168409 0.98381   
     length 2.73287   
     axis -90 7.62852e-016 20   XYZ
    dof rx rz
    limits (-45.0 90.0)
           (-70.0 20.0)
  end
  begin
     id 5 
     name ltoes
     direction 1.53547e-011 -4.21984e-011 1   
     length 1.37057   
     axis -90 7.62852e-016 20   XYZ
    dof rx
    limits (-90.0 20.0)
  end
  begin
     id 6 
     name rhipjoint
     direction -0.559611 -0.765599 0.317323   
     length 2.46939  
     axis 0 0 0  XYZ 
  end
  begin
     id 7 
     name rfemur
     direction -0.34202 -0.939693 0   
     length 7.53712   
     axis 0 0 -20   XYZ
    dof rx ry rz
    limits (-160.0 20.0)
           (-70.0 70.0)
           (-70.0 60.0)
  end
  begin
     id 8 
     name rtibia
     direction -0.34202 -0.939693 0   
     length 8.12549   
     axis 0 0 -20   XYZ
    dof rx
    limits (-10.0 170.0)
 end
 begin
     id 9 
     name rfoot
     direction -0.066984 -0.184037 0.980634   
     length 2.67541  
     axis -90 -7.62852e-016 -20   XYZ
    dof rx rz
    limits (-45.0 90.0)
           (-20.0 70.0)
  end
  begin
     id 10 
     name rtoes
     direction -1.53549e-011 -4.21786e-011 1   
     length 1.34085   
     axis -90 -7.62852e-016 -20   XYZ
    dof rx
    limits (-90.0 20.0)
  end
  begin
     id 11 
     name lowerback
     direction -0.0522728 0.992594 -0.109658   
     length 2.05633   
     axis 0 0 0   XYZ
    dof rx ry rz
    limits (-20.0 45.0)
           (-30.0 30.0)
           (-30.0 30.0)
  end
  begin
     id 12 
     name upperback
     direction 0.00589338 0.999977 0.00335704   
     length 2.05845   
     axis 0 0 0   XYZ
    dof rx ry rz
    limits (-20.0 45.0)
           (-30.0 30.0)
           (-30.0 30.0)
  end
  begin
     id 13 
     name thorax
     direction 0.0292928 0.998059 0.0549487   
     length 2.09281   
     axis 0 0 0   XYZ
    dof rx ry rz
    limits (-20.0 45.0)
           (-30.0 30.0)
           (-30.0 30.0)
  end
  begin
     id 14 
     name lowerneck
     direction 0.0356368 0.980775 0.191858   
     length 1.84767   
     axis 0 0 0   XYZ
    dof rx ry rz
    limits (-20.0 45.0)
           (-30.0 30.0)
           (-30.0 30.0)
  end
  begin
     id 15 
     name upperneck
     direction -0.0227605 0.98931 -0.14404   
     length 1.89582   
     axis 0 0 0   XYZ
    dof rx ry rz
    limits (-20.0 45.0)
           (-30.0 30.0)
           (-30.0 30.0)
  end
  begin
     id 16
     name head
     direction -0.00932985 0.997511 -0.0698904  
     length 1.90213  
     axis 0 0 0   XYZ
    dof rx ry rz
    limits (-20.0 45.0)
           (-30.0 30.0)
           (-30.0 30.0)
  end
  begin
     id 17 
     name lclavicle
     direction 0.873442 0.479511 0.0846686  
     length 3.41193  
     axis 0 0 0   XYZ
    dof ry rz
    limits (-20.0 10.0)
           (0.0 20.0)
  end
  begin
     id 18 
     name lhumerus
     direction 1 -4.4897e-011 -5.62117e-018   
     length 5.59864   
     axis 180 -30 -90   XYZ
    dof rx ry rz
    limits (-60.0 90.0)
           (-90.0 90.0)
           (-90.0 90.0)
  end
  begin
     id 19
     name lradius
     direction 1 -4.48966e-011 -6.26295e-027   
     length 3.59542   
     axis 180 -30 -90   XYZ
    dof rx
    limits (-10.0 170.0)
  end
  begin
     id 20
     name lwrist
     direction 1 -4.48947e-011 -1.74096e-026   
     length 1.79771   
     axis 1.04567e-014 90 90   XYZ
    dof ry
    limits (-180.0 0.0)
 end
  begin
     id 21 
     name lhand
     direction 1 -4.49085e-011 -3.48469e-026   
     length 0.572014   
     axis 2.22196e-014 90 90   XYZ
    dof rx rz
    limits (-90.0 90.0)
           (-45.0 45.0)
  end
  begin
     id 22 
     name lfingers
     direction 1 -4.48884e-011 -6.96135e-026   
     length 0.461173   
     axis 4.44383e-014 90 90   XYZ
    dof rx
    limits (0.0 90.0)
  end
  begin
     id 23
     name lthumb
     direction 0.707107 -6.34976e-011 0.707107   
     length 0.662154   
     axis -90 45 -5.4397e-014   XYZ
    dof rx rz
    limits (-45.0 45.0)
           (-45.0 45.0)
  end
  begin
     id 24 
     name rclavicle
     direction -0.890242 0.443271 0.104786   
     length 3.46753  
     axis 0 0 0   XYZ 
    dof ry rz
    limits (-10.0 20.0)
           (-20.0 0.0)
  end
  begin
     id 25 
     name rhumerus
     direction -1 -4.48963e-011 -5.41723e-018  
     length 5.8094   
     axis 180 30 90   XYZ
    dof rx ry rz
    limits (-90.0 60.0)
           (-90.0 90.0)
           (-90.0 90.0)
  end
  begin
     id 26 
     name rradius
     direction -1 -4.48958e-011 -6.51059e-027   
     length 3.66953   
     axis 180 30 90   XYZ
    dof rx
    limits (-10.0 170.0)
  end
  begin
     id 27 
     name rwrist
     direction -1 -4.48975e-011 -1.74124e-026   
     length 1.83476   
     axis 1.04567e-014 -90 -90   XYZ
    dof ry
    limits (-180.0 0.0)
  end
  begin
     id 28
     name rhand
     direction -1 -4.49013e-011 -3.48326e-026   
     length 0.57843   
     axis 2.22196e-014 -90 -90   XYZ
    dof rx rz
    limits (-90.0 90.0)
           (-45.0 45.0)
  end
  begin
     id 29
     name rfingers
     direction -1 -4.49023e-011 -6.9669e-026   
     length 0.466345   
     axis 4.44383e-014 -90 -90   XYZ
    dof rx
    limits (0.0 90.0)
  end
  begin
     id 30
     name rthumb
     direction -0.707107 -6.34926e-011 0.707107   
     length 0.669581   
     axis -90 -45 5.4397e-014   XYZ
    dof rx rz
    limits (-45.0 45.0)
           (-45.0 45.0)
  end
:hierarchy
  begin
    root lhipjoint rhipjoint lowerback
    lhipjoint lfemur
    lfemur ltibia
    ltibia lfoot
    lfoot ltoes
    rhipjoint rfemur
    rfemur rtibia
    rtibia rfoot
    rfoot rtoes
    lowerback upperback
    upperback thorax
    thorax lowerneck lclavicle rclavicle
    lowerneck upperneck
    upperneck head
    lclavicle lhumerus
    lhumerus lradius
    lradius lwrist
    lwrist lhand lthumb
    lhand lfingers
    rclavicle rhumerus
    rhumerus rradius
    rradius rwrist
    rwrist rhand rthumb
    rhand rfingers
  end

#!OML:ASF H:\SkateBoarding\Project 1\Capture day 1\Session 1\Skater.ASF
:FULLY-SPECIFIED
:DEGREES
244
root 5.58345 19.5102 20.1465 14.8628 74.2205 4.22728
lowerback 12.7118 -3.56951 -5.48287
upperback -1.03161 -5.32082 3.29543
thorax -7.41539 -2.2966 7.61562
lowerneck -18.414 -8.73025 -3.89959
upperneck 37.9477 -12.104 2.40942
head 17.4454 -4.86694 -0.594204
rclavicle -3.94588e-014 4.69132e-014
rhumerus -33.5893 25.9601 -69.3815
rradius 53.8804
rwrist -4.7059
rhand -43.7718 -3.62019
rfingers 7.12502
rthumb -16.6015 -32.9301
lclavicle -3.94588e-014 4.69132e-014
lhumerus 4.7092 -19.8692 49.5383
lradius 90.3081
lwrist 27.8525
lhand -30.8925 13.4943
lfingers 7.12502
lthumb -4.17936 43.433
rfemur -37.3263 -16.3309 30.1488
rtibia 49.3203
rfoot -37.8447 8.17462
rtoes -2.35089
lfemur -22.2961 -0.992442 -15.5538
ltibia 46.8664
lfoot -48.0324 9.0035
ltoes -24.5492
245
root 5.59654 19.4748 20.6 14.2919 75.2921 3.92111
lowerback 12.5933 -3.65317 -5.55171
upperback -1.15456 -5.43603 3.36401
thorax -7.4496 -2.34463 7.74456
lowerneck -18.0592 -8.83501 -3.86898
upperneck 38.2832 -12.246 2.33513
head 17.5366 -4.91607 -0.64671
rclavicle -6.63941e-014 1.94809e-014
rhumerus -34.6119 25.587 -69.9431
rradius 53.5113
rwrist -4.34807
rhand -43.2794 -4.2704
rfingers 7.12502
rthumb -16.1274 -33.6194
lclavicle -6.63941e-014 1.94809e-014
lhumerus 4.68863 -18.7234 47.8724
lradius 90.9973
lwrist 28.798
lhand -31.3927 14.3105
lfingers 7.12502
lthumb -4.66235 44.2392
rfemur -37.2915 -15.796 29.7399
rtibia 50.1389
rfoot -37.1376 9.80186
rtoes -0.242485
lfemur -21.8603 -2.27646 -15.1636
ltibia 46.3431
lfoot -48.4618 8.26581
ltoes -23.9346
246
root 5.61698 19.4752 21.0565 13.7323 76.156 3.62815
lowerback 12.3825 -3.63815 -5.58498
upperback -1.22348 -5.41353 3.37221
thorax -7.40461 -2.33374 7.75241
lowerneck -17.7508 -8.99394 -3.93409
upperneck 38.5947 -12.4783 2.3689
head 17.6528 -4.99806 -0.65682
rclavicle 2.3556e-014 -6.36111e-015
rhumerus -35.4929 24.7165 -70.3839
rradius 53.0528
rwrist -3.67488
rhand -42.214 -4.49025
rfingers 7.12502
rthumb -15.1013 -33.9194
lclavicle 2.3556e-014 -6.36111e-015
lhumerus 4.88412 -17.5687 46.2366
lradius 91.5599
lwrist 29.6739
lhand -31.6777 14.9738
lfingers 7.12502
lthumb -4.93751 44.8963
rfemur -37.1976 -14.9759 29.0582
rtibia 51.0181
rfoot -36.1064 10.7723
rtoes 1.2351
lfemur -21.3651 -3.08433 -14.8803
ltibia 45.6784
lfoot -48.5185 8.04589
ltoes -23.8381
247
root 5.64109 19.4718 21.5101 13.2298 76.9201 3.48287
lowerback 12.2073 -3.60887 -5.64391
upperback -1.25514 -5.37964 3.33948
thorax -7.34305 -2.31875 7.72963
lowerneck -17.4458 -9.13319 -3.94456
upperneck 38.8896 -12.6914 2.38122
head 17.7533 -5.0682 -0.680674
rclavicle -7.93151e-014 2.10712e-014
rhumerus -36.3389 24.0177 -70.7966
rradius 52.6771
rwrist -3.21419
rhand -41.5907 -5.62539
rfingers 7.12502
rthumb -14.5009 -35.0987
lclavicle -7.93151e-014 2.10712e-014
lhumerus 5.06987 -16.3026 44.6391
lradius 92.0206
lwrist 30.5596
lhand -32.1748 15.706
lfingers 7.12502
lthumb -5.41749 45.6167
rfemur -36.9386 -14.1942 28.2713
rtibia 51.8417
rfoot -34.7517 11.6814
rtoes 2.66385
lfemur -20.8215 -3.55735 -14.7326
ltibia 45.0738
lfoot -48.5449 8.15703
ltoes -24.1793
248
root 5.66266 19.4681 21.9647 12.1197 77.5949 2.66738
lowerback 12.0061 -3.5543 -5.58124
upperback -1.28107 -5.29 3.33074
thorax -7.27805 -2.28106 7.65259
lowerneck -17.132 -9.27343 -4.06919
upperneck 39.134 -12.9288 2.55142
head 17.8563 -5.14363 -0.619326
rclavicle 4.47266e-015 1.59028e-015
rhumerus -37.0027 23.0323 -71.1451
rradius 52.1392
rwrist -2.70265
rhand -40.6477 -6.14725
rfingers 7.12502
rthumb -13.5921 -35.6835
lclavicle 4.47266e-015 1.59028e-015
lhumerus 5.20925 -14.9021 43.1483
lradius 92.3981
lwrist 31.3513
lhand -32.4818 16.436
lfingers 7.12502
lthumb -5.7139 46.339
rfemur -36.6454 -13.1738 27.5901
rtibia 52.5154
rfoot -33.3114 12.3927
rtoes 2.93362
lfemur -20.3493 -3.75404 -14.4288
ltibia 44.4637
lfoot -48.4924 8.14147
ltoes -24.5367
249
root 5.68779 19.4672 22.4351 10.7604 78.1226 1.80793
lowerback 11.8517 -3.40819 -5.98655
upperback -1.17497 -5.13225 3.49637
thorax -7.05295 -2.19937 8.01781
lowerneck -16.8395 -9.4096 -4.2833
upperneck 39.3033 -13.0833 2.62296
head 17.9166 -5.21745 -0.570053
rclavicle -2.19657e-014 1.98785e-015
rhumerus -37.4239 22.0157 -71.1816
rradius 51.5199
rwrist -2.194
rhand -39.7088 -6.912
rfingers 7.12502
rthumb -12.6871 -36.5066
lclavicle -2.19657e-014 1.98785e-015
lhumerus 5.29122 -13.2749 41.9922
lradius 92.6411
lwrist 31.9941
lhand -32.6167 17.004
lfingers 7.12502
lthumb -5.84415 46.9034
rfemur -35.9408 -11.8859 26.8443
rtibia 52.9957
rfoot -32.0794 13.0685
rtoes 3.46946
lfemur -19.597 -3.59103 -14.1128
ltibia 43.912
lfoot -48.427 8.25458
ltoes -25.0138
250
root 5.71101 19.4727 22.8888 9.6084 78.6584 1.01255
lowerback 11.727 -3.36073 -6.03216
upperback -1.19599 -5.06887 3.51426
thorax -7.01068 -2.16826 8.04349
lowerneck -16.509 -9.48354 -4.35279
upperneck 39.5336 -13.1851 2.66446
head 17.9816 -5.25168 -0.544464
rclavicle -1.53561e-013 -1.19271e-015
rhumerus -37.8883 21.0112 -71.4085
rradius 50.8695
rwrist -1.82468
rhand -38.7584 -7.42891
rfingers 7.12502
rthumb -11.7707 -37.0782
lclavicle -1.53561e-013 -1.19271e-015
lhumerus 5.16038 -11.6195 40.7416
lradius 92.8476
lwrist 32.6794
lhand -32.5018 17.2972
lfingers 7.12502
lthumb -5.73324 47.1996
rfemur -35.3538 -10.5749 26.0235
rtibia 53.2959
rfoot -30.5927 13.4243
rtoes 4.09116
lfemur -19.0654 -3.69924 -13.8626
ltibia 43.3989
lfoot -48.6087 8.2469
ltoes -25.4399
251
root 5.73703 19.4885 23.3394 8.76874 79.144 0.58194
lowerback 11.6501 -3.28 -6.05753
upperback -1.22255 -4.96351 3.49211
thorax -7.01432 -2.11528 8.01304
lowerneck -16.1258 -9.59583 -4.58178
upperneck 39.745 -13.3124 2.76421
head 18.0489 -5.31285 -0.469053
rclavicle 2.60408e-014 1.15295e-014
rhumerus -38.3663 19.851 -71.6245
rradius 50.1082
rwrist -1.20884
rhand -38.0993 -8.38866
rfingers 7.12502
rthumb -11.135 -38.0732
lclavicle 2.60408e-014 1.15295e-014
lhumerus 5.02537 -9.98541 39.6566
lradius 92.9931
lwrist 33.3876
lhand -33.6961 18.2395
lfingers 7.12502
lthumb -6.8862 48.1075
rfemur -34.5932 -9.16482 25.062
rtibia 53.382
rfoot -29.1787 13.5765
rtoes 3.94226
lfemur -18.4571 -3.95694 -13.7447
ltibia 42.8759
lfoot -48.6482 8.61851
ltoes -25.695
252
root 5.76363 19.5083 23.7913 7.24433 79.6044 -0.510897
lowerback 11.5771 -3.28351 -5.91382
upperback -1.20852 -4.94626 3.45622
thorax -6.97533 -2.11573 7.88138
lowerneck -15.826 -9.59423 -4.62963
upperneck 39.9873 -13.2876 2.76198
head 18.1158 -5.29934 -0.441405
rclavicle 6.31141e-014 1.31198e-014
rhumerus -38.6919 18.7902 -71.873
rradius 49.321
rwrist -0.892948
rhand -37.4319 -9.12763
rfingers 7.12502
rthumb -10.4912 -38.8458
lclavicle 6.31141e-014 1.31198e-014
lhumerus 4.70428 -8.26086 38.5092
lradius 93.2615
lwrist 34.207
lhand -33.5338 18.795
lfingers 7.12502
lthumb -6.72949 48.6681
rfemur -33.7089 -7.43466 24.1459
rtibia 53.2928
rfoot -28.0223 13.2211
rtoes 2.76829
lfemur -17.8319 -4.23396 -13.4857
ltibia 42.4118
lfoot -48.6654 8.90836
ltoes -25.6975
